<mxfile host="app.diagrams.net" modified="2024-02-09T18:36:13.144Z" agent="Mozilla/5.0 (Windows NT 10.0; Win64; x64) AppleWebKit/537.36 (KHTML, like Gecko) Chrome/121.0.0.0 Safari/537.36" etag="ij6cd023diestb4D4435" version="23.1.2" type="device">
  <diagram id="V6dfWRo4bIaxzSpUcKBD" name="1">
    <mxGraphModel dx="1032" dy="580" grid="1" gridSize="10" guides="1" tooltips="1" connect="1" arrows="1" fold="1" page="1" pageScale="1" pageWidth="827" pageHeight="1169" math="0" shadow="0">
      <root>
        <mxCell id="0" />
        <mxCell id="1" parent="0" />
        <mxCell id="Udsn4bSvTREjVbGwYA5K-1" value="UI" style="shape=umlLifeline;perimeter=lifelinePerimeter;whiteSpace=wrap;html=1;container=0;dropTarget=0;collapsible=0;recursiveResize=0;outlineConnect=0;portConstraint=eastwest;newEdgeStyle={&quot;edgeStyle&quot;:&quot;elbowEdgeStyle&quot;,&quot;elbow&quot;:&quot;vertical&quot;,&quot;curved&quot;:0,&quot;rounded&quot;:0};" vertex="1" parent="1">
          <mxGeometry x="248" y="110" width="100" height="410" as="geometry" />
        </mxCell>
        <mxCell id="Udsn4bSvTREjVbGwYA5K-2" value="" style="html=1;points=[];perimeter=orthogonalPerimeter;outlineConnect=0;targetShapes=umlLifeline;portConstraint=eastwest;newEdgeStyle={&quot;edgeStyle&quot;:&quot;elbowEdgeStyle&quot;,&quot;elbow&quot;:&quot;vertical&quot;,&quot;curved&quot;:0,&quot;rounded&quot;:0};" vertex="1" parent="Udsn4bSvTREjVbGwYA5K-1">
          <mxGeometry x="45" y="60" width="10" height="300" as="geometry" />
        </mxCell>
        <mxCell id="Udsn4bSvTREjVbGwYA5K-3" value="" style="shape=umlDestroy;whiteSpace=wrap;html=1;strokeWidth=3;targetShapes=umlLifeline;" vertex="1" parent="Udsn4bSvTREjVbGwYA5K-1">
          <mxGeometry x="40" y="390" width="20" height="20" as="geometry" />
        </mxCell>
        <mxCell id="Udsn4bSvTREjVbGwYA5K-4" value="Database" style="shape=umlLifeline;perimeter=lifelinePerimeter;whiteSpace=wrap;html=1;container=0;dropTarget=0;collapsible=0;recursiveResize=0;outlineConnect=0;portConstraint=eastwest;newEdgeStyle={&quot;edgeStyle&quot;:&quot;elbowEdgeStyle&quot;,&quot;elbow&quot;:&quot;vertical&quot;,&quot;curved&quot;:0,&quot;rounded&quot;:0};" vertex="1" parent="1">
          <mxGeometry x="668" y="110" width="100" height="410" as="geometry" />
        </mxCell>
        <mxCell id="Udsn4bSvTREjVbGwYA5K-5" value="" style="html=1;points=[];perimeter=orthogonalPerimeter;outlineConnect=0;targetShapes=umlLifeline;portConstraint=eastwest;newEdgeStyle={&quot;edgeStyle&quot;:&quot;elbowEdgeStyle&quot;,&quot;elbow&quot;:&quot;vertical&quot;,&quot;curved&quot;:0,&quot;rounded&quot;:0};" vertex="1" parent="Udsn4bSvTREjVbGwYA5K-4">
          <mxGeometry x="45" y="70" width="10" height="290" as="geometry" />
        </mxCell>
        <mxCell id="Udsn4bSvTREjVbGwYA5K-6" value="" style="shape=umlDestroy;whiteSpace=wrap;html=1;strokeWidth=3;targetShapes=umlLifeline;" vertex="1" parent="Udsn4bSvTREjVbGwYA5K-4">
          <mxGeometry x="40" y="390" width="20" height="20" as="geometry" />
        </mxCell>
        <mxCell id="Udsn4bSvTREjVbGwYA5K-7" value="User Details not Saved&amp;nbsp;" style="html=1;verticalAlign=bottom;endArrow=open;dashed=1;endSize=8;edgeStyle=elbowEdgeStyle;elbow=horizontal;curved=0;rounded=0;" edge="1" parent="1">
          <mxGeometry x="-0.0008" relative="1" as="geometry">
            <mxPoint x="518" y="410" as="targetPoint" />
            <Array as="points">
              <mxPoint x="568" y="410" />
              <mxPoint x="658" y="480" />
              <mxPoint x="638" y="470" />
              <mxPoint x="618" y="460" />
              <mxPoint x="598" y="450" />
              <mxPoint x="613" y="430" />
            </Array>
            <mxPoint as="offset" />
            <mxPoint x="708" y="410" as="sourcePoint" />
          </mxGeometry>
        </mxCell>
        <mxCell id="Udsn4bSvTREjVbGwYA5K-8" value="User Details Saved Successfully" style="html=1;verticalAlign=bottom;endArrow=open;dashed=1;endSize=8;edgeStyle=elbowEdgeStyle;elbow=vertical;curved=0;rounded=0;" edge="1" parent="1" source="Udsn4bSvTREjVbGwYA5K-5" target="Udsn4bSvTREjVbGwYA5K-18">
          <mxGeometry x="-0.0653" relative="1" as="geometry">
            <mxPoint x="508" y="330" as="targetPoint" />
            <Array as="points">
              <mxPoint x="568" y="330" />
              <mxPoint x="608" y="370" />
              <mxPoint x="588" y="360" />
              <mxPoint x="598" y="360" />
            </Array>
            <mxPoint x="683" y="330" as="sourcePoint" />
            <mxPoint as="offset" />
          </mxGeometry>
        </mxCell>
        <mxCell id="Udsn4bSvTREjVbGwYA5K-9" value="" style="endArrow=none;dashed=1;html=1;rounded=0;" edge="1" parent="1">
          <mxGeometry width="50" height="50" relative="1" as="geometry">
            <mxPoint x="118" y="520" as="sourcePoint" />
            <mxPoint x="120" y="170" as="targetPoint" />
          </mxGeometry>
        </mxCell>
        <mxCell id="Udsn4bSvTREjVbGwYA5K-10" value="Alternative" style="shape=umlFrame;whiteSpace=wrap;html=1;pointerEvents=0;" vertex="1" parent="1">
          <mxGeometry x="68" y="309" width="680" height="140" as="geometry" />
        </mxCell>
        <mxCell id="Udsn4bSvTREjVbGwYA5K-11" value="" style="line;strokeWidth=1;fillColor=none;align=left;verticalAlign=middle;spacingTop=-1;spacingLeft=3;spacingRight=3;rotatable=0;labelPosition=right;points=[];portConstraint=eastwest;strokeColor=inherit;" vertex="1" parent="1">
          <mxGeometry x="64" y="375" width="684" height="8" as="geometry" />
        </mxCell>
        <mxCell id="Udsn4bSvTREjVbGwYA5K-12" value="Display User Saved Successfully" style="html=1;verticalAlign=bottom;endArrow=block;edgeStyle=elbowEdgeStyle;elbow=vertical;curved=0;rounded=0;dashed=1;" edge="1" parent="1">
          <mxGeometry y="-5" width="80" relative="1" as="geometry">
            <mxPoint x="298" y="365" as="sourcePoint" />
            <mxPoint x="118" y="365" as="targetPoint" />
            <Array as="points">
              <mxPoint x="223" y="365" />
            </Array>
            <mxPoint as="offset" />
          </mxGeometry>
        </mxCell>
        <mxCell id="Udsn4bSvTREjVbGwYA5K-13" value="Display Error Message" style="html=1;verticalAlign=bottom;endArrow=block;edgeStyle=elbowEdgeStyle;elbow=vertical;curved=0;rounded=0;dashed=1;" edge="1" parent="1">
          <mxGeometry width="80" relative="1" as="geometry">
            <mxPoint x="288" y="440" as="sourcePoint" />
            <mxPoint x="118" y="440" as="targetPoint" />
            <mxPoint as="offset" />
          </mxGeometry>
        </mxCell>
        <mxCell id="Udsn4bSvTREjVbGwYA5K-14" value="&lt;b style=&quot;font-size: 10px;&quot;&gt;[if User&lt;/b&gt;&lt;b style=&quot;font-size: 10px;&quot;&gt;&amp;nbsp;Details Added]&lt;/b&gt;" style="text;html=1;strokeColor=none;fillColor=none;align=left;verticalAlign=middle;whiteSpace=wrap;rounded=0;" vertex="1" parent="1">
          <mxGeometry x="136" y="308.75" width="134" height="22.5" as="geometry" />
        </mxCell>
        <mxCell id="Udsn4bSvTREjVbGwYA5K-15" value="&lt;font style=&quot;font-size: 10px;&quot;&gt;&lt;b&gt;[else]&lt;/b&gt;&lt;/font&gt;" style="text;html=1;strokeColor=none;fillColor=none;align=left;verticalAlign=middle;whiteSpace=wrap;rounded=0;" vertex="1" parent="1">
          <mxGeometry x="78" y="383" width="80" height="10" as="geometry" />
        </mxCell>
        <mxCell id="Udsn4bSvTREjVbGwYA5K-16" value="General Manager" style="shape=umlActor;verticalLabelPosition=bottom;verticalAlign=top;html=1;outlineConnect=0;" vertex="1" parent="1">
          <mxGeometry x="110" y="100" width="18" height="40" as="geometry" />
        </mxCell>
        <mxCell id="Udsn4bSvTREjVbGwYA5K-17" value="System" style="shape=umlLifeline;perimeter=lifelinePerimeter;whiteSpace=wrap;html=1;container=0;dropTarget=0;collapsible=0;recursiveResize=0;outlineConnect=0;portConstraint=eastwest;newEdgeStyle={&quot;edgeStyle&quot;:&quot;elbowEdgeStyle&quot;,&quot;elbow&quot;:&quot;vertical&quot;,&quot;curved&quot;:0,&quot;rounded&quot;:0};size=40;" vertex="1" parent="1">
          <mxGeometry x="444" y="110" width="130" height="410" as="geometry" />
        </mxCell>
        <mxCell id="Udsn4bSvTREjVbGwYA5K-18" value="" style="html=1;points=[];perimeter=orthogonalPerimeter;outlineConnect=0;targetShapes=umlLifeline;portConstraint=eastwest;newEdgeStyle={&quot;edgeStyle&quot;:&quot;elbowEdgeStyle&quot;,&quot;elbow&quot;:&quot;vertical&quot;,&quot;curved&quot;:0,&quot;rounded&quot;:0};" vertex="1" parent="Udsn4bSvTREjVbGwYA5K-17">
          <mxGeometry x="60" y="70" width="10" height="290" as="geometry" />
        </mxCell>
        <mxCell id="Udsn4bSvTREjVbGwYA5K-19" value="" style="shape=umlDestroy;whiteSpace=wrap;html=1;strokeWidth=3;targetShapes=umlLifeline;" vertex="1" parent="Udsn4bSvTREjVbGwYA5K-17">
          <mxGeometry x="55" y="390" width="20" height="20" as="geometry" />
        </mxCell>
        <mxCell id="Udsn4bSvTREjVbGwYA5K-20" value="Saved Successfully" style="html=1;verticalAlign=bottom;endArrow=open;dashed=1;endSize=8;edgeStyle=elbowEdgeStyle;elbow=vertical;curved=0;rounded=0;" edge="1" parent="1">
          <mxGeometry relative="1" as="geometry">
            <mxPoint x="298" y="350" as="targetPoint" />
            <Array as="points">
              <mxPoint x="363" y="350" />
              <mxPoint x="403" y="390" />
              <mxPoint x="383" y="380" />
              <mxPoint x="393" y="380" />
            </Array>
            <mxPoint x="498" y="350" as="sourcePoint" />
          </mxGeometry>
        </mxCell>
        <mxCell id="Udsn4bSvTREjVbGwYA5K-21" value="Not Saved" style="html=1;verticalAlign=bottom;endArrow=open;dashed=1;endSize=8;edgeStyle=elbowEdgeStyle;elbow=vertical;curved=0;rounded=0;" edge="1" parent="1">
          <mxGeometry relative="1" as="geometry">
            <mxPoint x="298" y="420" as="targetPoint" />
            <Array as="points">
              <mxPoint x="363" y="420" />
              <mxPoint x="403" y="460" />
              <mxPoint x="383" y="450" />
              <mxPoint x="393" y="450" />
            </Array>
            <mxPoint x="498" y="420" as="sourcePoint" />
          </mxGeometry>
        </mxCell>
        <mxCell id="Udsn4bSvTREjVbGwYA5K-22" value="Add User Details &amp;amp; Click Save" style="html=1;verticalAlign=bottom;endArrow=block;edgeStyle=elbowEdgeStyle;elbow=vertical;curved=0;rounded=0;" edge="1" parent="1">
          <mxGeometry width="80" relative="1" as="geometry">
            <mxPoint x="120" y="220" as="sourcePoint" />
            <mxPoint x="296" y="220" as="targetPoint" />
          </mxGeometry>
        </mxCell>
        <mxCell id="Udsn4bSvTREjVbGwYA5K-23" value="Add User Details" style="html=1;verticalAlign=bottom;endArrow=block;edgeStyle=elbowEdgeStyle;elbow=vertical;curved=0;rounded=0;" edge="1" parent="1">
          <mxGeometry width="80" relative="1" as="geometry">
            <mxPoint x="303" y="250" as="sourcePoint" />
            <mxPoint x="503" y="250" as="targetPoint" />
          </mxGeometry>
        </mxCell>
        <mxCell id="Udsn4bSvTREjVbGwYA5K-24" value="Saved User Details&amp;nbsp;" style="html=1;verticalAlign=bottom;endArrow=block;edgeStyle=elbowEdgeStyle;elbow=vertical;curved=0;rounded=0;" edge="1" parent="1">
          <mxGeometry width="80" relative="1" as="geometry">
            <mxPoint x="510" y="280" as="sourcePoint" />
            <mxPoint x="710" y="280" as="targetPoint" />
            <mxPoint as="offset" />
          </mxGeometry>
        </mxCell>
        <mxCell id="Udsn4bSvTREjVbGwYA5K-25" value="UI" style="shape=umlLifeline;perimeter=lifelinePerimeter;whiteSpace=wrap;html=1;container=0;dropTarget=0;collapsible=0;recursiveResize=0;outlineConnect=0;portConstraint=eastwest;newEdgeStyle={&quot;edgeStyle&quot;:&quot;elbowEdgeStyle&quot;,&quot;elbow&quot;:&quot;vertical&quot;,&quot;curved&quot;:0,&quot;rounded&quot;:0};" vertex="1" parent="1">
          <mxGeometry x="237" y="600" width="100" height="470" as="geometry" />
        </mxCell>
        <mxCell id="Udsn4bSvTREjVbGwYA5K-26" value="" style="html=1;points=[];perimeter=orthogonalPerimeter;outlineConnect=0;targetShapes=umlLifeline;portConstraint=eastwest;newEdgeStyle={&quot;edgeStyle&quot;:&quot;elbowEdgeStyle&quot;,&quot;elbow&quot;:&quot;vertical&quot;,&quot;curved&quot;:0,&quot;rounded&quot;:0};" vertex="1" parent="Udsn4bSvTREjVbGwYA5K-25">
          <mxGeometry x="45" y="60" width="10" height="360" as="geometry" />
        </mxCell>
        <mxCell id="Udsn4bSvTREjVbGwYA5K-27" value="" style="shape=umlDestroy;whiteSpace=wrap;html=1;strokeWidth=3;targetShapes=umlLifeline;" vertex="1" parent="Udsn4bSvTREjVbGwYA5K-25">
          <mxGeometry x="40" y="450" width="20" height="20" as="geometry" />
        </mxCell>
        <mxCell id="Udsn4bSvTREjVbGwYA5K-28" value="Database" style="shape=umlLifeline;perimeter=lifelinePerimeter;whiteSpace=wrap;html=1;container=0;dropTarget=0;collapsible=0;recursiveResize=0;outlineConnect=0;portConstraint=eastwest;newEdgeStyle={&quot;edgeStyle&quot;:&quot;elbowEdgeStyle&quot;,&quot;elbow&quot;:&quot;vertical&quot;,&quot;curved&quot;:0,&quot;rounded&quot;:0};" vertex="1" parent="1">
          <mxGeometry x="655" y="600" width="100" height="470" as="geometry" />
        </mxCell>
        <mxCell id="Udsn4bSvTREjVbGwYA5K-29" value="" style="html=1;points=[];perimeter=orthogonalPerimeter;outlineConnect=0;targetShapes=umlLifeline;portConstraint=eastwest;newEdgeStyle={&quot;edgeStyle&quot;:&quot;elbowEdgeStyle&quot;,&quot;elbow&quot;:&quot;vertical&quot;,&quot;curved&quot;:0,&quot;rounded&quot;:0};" vertex="1" parent="Udsn4bSvTREjVbGwYA5K-28">
          <mxGeometry x="47" y="90" width="10" height="340" as="geometry" />
        </mxCell>
        <mxCell id="Udsn4bSvTREjVbGwYA5K-30" value="" style="shape=umlDestroy;whiteSpace=wrap;html=1;strokeWidth=3;targetShapes=umlLifeline;" vertex="1" parent="Udsn4bSvTREjVbGwYA5K-28">
          <mxGeometry x="40" y="450" width="20" height="20" as="geometry" />
        </mxCell>
        <mxCell id="Udsn4bSvTREjVbGwYA5K-31" value="" style="endArrow=none;dashed=1;html=1;rounded=0;" edge="1" parent="1" target="Udsn4bSvTREjVbGwYA5K-32">
          <mxGeometry width="50" height="50" relative="1" as="geometry">
            <mxPoint x="106" y="1060" as="sourcePoint" />
            <mxPoint x="107" y="690" as="targetPoint" />
          </mxGeometry>
        </mxCell>
        <mxCell id="Udsn4bSvTREjVbGwYA5K-32" value="General Manager" style="shape=umlActor;verticalLabelPosition=bottom;verticalAlign=top;html=1;outlineConnect=0;" vertex="1" parent="1">
          <mxGeometry x="97" y="580" width="20" height="40" as="geometry" />
        </mxCell>
        <mxCell id="Udsn4bSvTREjVbGwYA5K-33" value="System" style="shape=umlLifeline;perimeter=lifelinePerimeter;whiteSpace=wrap;html=1;container=0;dropTarget=0;collapsible=0;recursiveResize=0;outlineConnect=0;portConstraint=eastwest;newEdgeStyle={&quot;edgeStyle&quot;:&quot;elbowEdgeStyle&quot;,&quot;elbow&quot;:&quot;vertical&quot;,&quot;curved&quot;:0,&quot;rounded&quot;:0};size=40;" vertex="1" parent="1">
          <mxGeometry x="433" y="600" width="130" height="470" as="geometry" />
        </mxCell>
        <mxCell id="Udsn4bSvTREjVbGwYA5K-34" value="" style="html=1;points=[];perimeter=orthogonalPerimeter;outlineConnect=0;targetShapes=umlLifeline;portConstraint=eastwest;newEdgeStyle={&quot;edgeStyle&quot;:&quot;elbowEdgeStyle&quot;,&quot;elbow&quot;:&quot;vertical&quot;,&quot;curved&quot;:0,&quot;rounded&quot;:0};" vertex="1" parent="Udsn4bSvTREjVbGwYA5K-33">
          <mxGeometry x="60" y="70" width="10" height="350" as="geometry" />
        </mxCell>
        <mxCell id="Udsn4bSvTREjVbGwYA5K-35" value="" style="shape=umlDestroy;whiteSpace=wrap;html=1;strokeWidth=3;targetShapes=umlLifeline;" vertex="1" parent="Udsn4bSvTREjVbGwYA5K-33">
          <mxGeometry x="55" y="450" width="20" height="20" as="geometry" />
        </mxCell>
        <mxCell id="Udsn4bSvTREjVbGwYA5K-36" value="Entered Details not Updated" style="html=1;verticalAlign=bottom;endArrow=open;dashed=1;endSize=8;edgeStyle=elbowEdgeStyle;elbow=vertical;curved=0;rounded=0;" edge="1" parent="1">
          <mxGeometry x="-0.0008" relative="1" as="geometry">
            <mxPoint x="507" y="940" as="targetPoint" />
            <Array as="points">
              <mxPoint x="557" y="940" />
              <mxPoint x="647" y="1010" />
              <mxPoint x="627" y="1000" />
              <mxPoint x="607" y="990" />
              <mxPoint x="587" y="980" />
              <mxPoint x="602" y="960" />
            </Array>
            <mxPoint as="offset" />
            <mxPoint x="697" y="940" as="sourcePoint" />
          </mxGeometry>
        </mxCell>
        <mxCell id="Udsn4bSvTREjVbGwYA5K-37" value="" style="html=1;verticalAlign=bottom;endArrow=open;dashed=1;endSize=8;edgeStyle=elbowEdgeStyle;elbow=vertical;curved=0;rounded=0;" edge="1" parent="1">
          <mxGeometry x="-0.206" relative="1" as="geometry">
            <mxPoint x="498" y="872.5" as="targetPoint" />
            <Array as="points">
              <mxPoint x="552" y="872.5" />
              <mxPoint x="592" y="912.5" />
              <mxPoint x="572" y="902.5" />
              <mxPoint x="582" y="902.5" />
            </Array>
            <mxPoint x="697" y="872.5" as="sourcePoint" />
            <mxPoint as="offset" />
          </mxGeometry>
        </mxCell>
        <mxCell id="Udsn4bSvTREjVbGwYA5K-38" value="Entered Details Update Successfully" style="edgeLabel;html=1;align=center;verticalAlign=middle;resizable=0;points=[];" vertex="1" connectable="0" parent="Udsn4bSvTREjVbGwYA5K-37">
          <mxGeometry x="-0.0814" y="-3" relative="1" as="geometry">
            <mxPoint y="-8" as="offset" />
          </mxGeometry>
        </mxCell>
        <mxCell id="Udsn4bSvTREjVbGwYA5K-39" value="Alternative" style="shape=umlFrame;whiteSpace=wrap;html=1;pointerEvents=0;" vertex="1" parent="1">
          <mxGeometry x="61" y="850" width="690" height="120" as="geometry" />
        </mxCell>
        <mxCell id="Udsn4bSvTREjVbGwYA5K-40" value="" style="line;strokeWidth=1;fillColor=none;align=left;verticalAlign=middle;spacingTop=-1;spacingLeft=3;spacingRight=3;rotatable=0;labelPosition=right;points=[];portConstraint=eastwest;strokeColor=inherit;" vertex="1" parent="1">
          <mxGeometry x="61" y="911.25" width="694" height="8" as="geometry" />
        </mxCell>
        <mxCell id="Udsn4bSvTREjVbGwYA5K-41" value="Display User&lt;br&gt;Details Updated Successfully&amp;nbsp;" style="html=1;verticalAlign=bottom;endArrow=block;edgeStyle=elbowEdgeStyle;elbow=vertical;curved=0;rounded=0;dashed=1;" edge="1" parent="1">
          <mxGeometry y="-5" width="80" relative="1" as="geometry">
            <mxPoint x="282" y="901.25" as="sourcePoint" />
            <mxPoint x="102" y="901.25" as="targetPoint" />
            <Array as="points">
              <mxPoint x="207" y="901.25" />
            </Array>
            <mxPoint as="offset" />
          </mxGeometry>
        </mxCell>
        <mxCell id="Udsn4bSvTREjVbGwYA5K-42" value="Display Error Message&amp;nbsp;" style="html=1;verticalAlign=bottom;endArrow=block;edgeStyle=elbowEdgeStyle;elbow=vertical;curved=0;rounded=0;dashed=1;" edge="1" parent="1">
          <mxGeometry width="80" relative="1" as="geometry">
            <mxPoint x="276" y="955.25" as="sourcePoint" />
            <mxPoint x="106" y="955.25" as="targetPoint" />
            <mxPoint as="offset" />
          </mxGeometry>
        </mxCell>
        <mxCell id="Udsn4bSvTREjVbGwYA5K-43" value="&lt;span style=&quot;font-size: 10px;&quot;&gt;&lt;b&gt;[if User Details Updated ]&lt;/b&gt;&lt;/span&gt;" style="text;html=1;strokeColor=none;fillColor=none;align=left;verticalAlign=middle;whiteSpace=wrap;rounded=0;" vertex="1" parent="1">
          <mxGeometry x="121" y="850" width="149" height="22.5" as="geometry" />
        </mxCell>
        <mxCell id="Udsn4bSvTREjVbGwYA5K-44" value="&lt;font style=&quot;font-size: 10px;&quot;&gt;&lt;b&gt;[else]&lt;/b&gt;&lt;/font&gt;" style="text;html=1;strokeColor=none;fillColor=none;align=left;verticalAlign=middle;whiteSpace=wrap;rounded=0;" vertex="1" parent="1">
          <mxGeometry x="62" y="919.25" width="80" height="10" as="geometry" />
        </mxCell>
        <mxCell id="Udsn4bSvTREjVbGwYA5K-45" value="Changed Necessary Details&amp;nbsp;" style="html=1;verticalAlign=bottom;endArrow=block;edgeStyle=elbowEdgeStyle;elbow=vertical;curved=0;rounded=0;" edge="1" parent="1">
          <mxGeometry width="80" relative="1" as="geometry">
            <mxPoint x="109" y="710" as="sourcePoint" />
            <mxPoint x="287" y="710" as="targetPoint" />
            <Array as="points">
              <mxPoint x="108" y="710" />
            </Array>
          </mxGeometry>
        </mxCell>
        <mxCell id="Udsn4bSvTREjVbGwYA5K-46" value="Changed Details&amp;nbsp;" style="html=1;verticalAlign=bottom;endArrow=block;edgeStyle=elbowEdgeStyle;elbow=vertical;curved=0;rounded=0;" edge="1" parent="1">
          <mxGeometry width="80" relative="1" as="geometry">
            <mxPoint x="289.75" y="760" as="sourcePoint" />
            <mxPoint x="491.25" y="760" as="targetPoint" />
            <Array as="points" />
          </mxGeometry>
        </mxCell>
        <mxCell id="Udsn4bSvTREjVbGwYA5K-47" value="Update Entered Details&amp;nbsp;" style="html=1;verticalAlign=bottom;endArrow=block;edgeStyle=elbowEdgeStyle;elbow=vertical;curved=0;rounded=0;" edge="1" parent="1">
          <mxGeometry width="80" relative="1" as="geometry">
            <mxPoint x="507" y="800" as="sourcePoint" />
            <mxPoint x="707" y="800" as="targetPoint" />
            <Array as="points" />
          </mxGeometry>
        </mxCell>
        <mxCell id="Udsn4bSvTREjVbGwYA5K-48" value="" style="html=1;verticalAlign=bottom;endArrow=open;dashed=1;endSize=8;edgeStyle=elbowEdgeStyle;elbow=vertical;curved=0;rounded=0;" edge="1" parent="1">
          <mxGeometry x="-0.206" relative="1" as="geometry">
            <mxPoint x="295" y="882.5" as="targetPoint" />
            <Array as="points">
              <mxPoint x="349" y="882.5" />
              <mxPoint x="389" y="922.5" />
              <mxPoint x="369" y="912.5" />
              <mxPoint x="379" y="912.5" />
            </Array>
            <mxPoint x="494" y="882.5" as="sourcePoint" />
            <mxPoint as="offset" />
          </mxGeometry>
        </mxCell>
        <mxCell id="Udsn4bSvTREjVbGwYA5K-49" value="Entered Details Update Successfully" style="edgeLabel;html=1;align=center;verticalAlign=middle;resizable=0;points=[];" vertex="1" connectable="0" parent="Udsn4bSvTREjVbGwYA5K-48">
          <mxGeometry x="-0.0814" y="-3" relative="1" as="geometry">
            <mxPoint x="-13" y="-7" as="offset" />
          </mxGeometry>
        </mxCell>
        <mxCell id="Udsn4bSvTREjVbGwYA5K-50" value="Entered Details not Updated" style="html=1;verticalAlign=bottom;endArrow=open;dashed=1;endSize=8;edgeStyle=elbowEdgeStyle;elbow=vertical;curved=0;rounded=0;" edge="1" parent="1">
          <mxGeometry x="-0.0008" relative="1" as="geometry">
            <mxPoint x="297" y="950" as="targetPoint" />
            <Array as="points">
              <mxPoint x="349.5" y="950" />
              <mxPoint x="439.5" y="1020" />
              <mxPoint x="419.5" y="1010" />
              <mxPoint x="399.5" y="1000" />
              <mxPoint x="379.5" y="990" />
              <mxPoint x="394.5" y="970" />
            </Array>
            <mxPoint as="offset" />
            <mxPoint x="489.5" y="950" as="sourcePoint" />
          </mxGeometry>
        </mxCell>
        <mxCell id="Udsn4bSvTREjVbGwYA5K-51" value="&lt;h2&gt;&lt;font style=&quot;font-size: 16px;&quot;&gt;Sequence Diagram - Resource Manager Update Existing User in the System&amp;nbsp;&lt;/font&gt;&lt;/h2&gt;" style="text;whiteSpace=wrap;html=1;" vertex="1" parent="1">
          <mxGeometry x="110" y="530" width="627.5" height="40" as="geometry" />
        </mxCell>
        <mxCell id="Udsn4bSvTREjVbGwYA5K-52" value="&lt;h2&gt;&lt;font style=&quot;font-size: 16px;&quot;&gt;Sequence Diagram - General Manager Add User to the System&amp;nbsp;&lt;/font&gt;&lt;/h2&gt;" style="text;whiteSpace=wrap;html=1;" vertex="1" parent="1">
          <mxGeometry x="190" y="20" width="490" height="40" as="geometry" />
        </mxCell>
      </root>
    </mxGraphModel>
  </diagram>
</mxfile>
